<?xml version="1.0" encoding="utf-8"?>
<!-- Generator: Adobe Illustrator 26.3.1, SVG Export Plug-In . SVG Version: 6.00 Build 0)  -->
<svg version="1.1" id="Capa_1" xmlns="http://www.w3.org/2000/svg" xmlns:xlink="http://www.w3.org/1999/xlink" x="0px" y="0px"
	 viewBox="0 0 1843 211" style="enable-background:new 0 0 1843 211;" xml:space="preserve">
<style type="text/css">
	.st0{clip-path:url(#SVGID_00000023256717078415120190000005736375786901660861_);}
	.st1{clip-path:url(#SVGID_00000006681403176998865430000000916003294857111680_);fill:#A73A42;}
	.st2{clip-path:url(#SVGID_00000006681403176998865430000000916003294857111680_);fill:#E6E7E8;}
	.st3{clip-path:url(#SVGID_00000006681403176998865430000000916003294857111680_);fill:#FFFFFF;}
</style>
<g id="Objeto_inteligente_vectorial_00000038414802673164382220000007975092678603478421_">
	<g>
		<defs>
			<rect id="SVGID_1_" x="24.6" y="4" width="1793.1" height="201.1"/>
		</defs>
		<clipPath id="SVGID_00000016044285928228469660000001396987862008594590_">
			<use xlink:href="#SVGID_1_"  style="overflow:visible;"/>
		</clipPath>
		<g style="clip-path:url(#SVGID_00000016044285928228469660000001396987862008594590_);">
			<defs>
				<rect id="SVGID_00000006668948493398638220000010695422100240370349_" x="24.6" y="4" width="1793.1" height="201.1"/>
			</defs>
			<clipPath id="SVGID_00000019644904915210065660000009943551269637411250_">
				<use xlink:href="#SVGID_00000006668948493398638220000010695422100240370349_"  style="overflow:visible;"/>
			</clipPath>
			<path style="clip-path:url(#SVGID_00000019644904915210065660000009943551269637411250_);fill:#A73A42;" d="M223.5,109.8l-93,93
				c-2.9,2.9-7.7,2.9-10.6,0l-93-93c-2.9-2.9-2.9-7.7,0-10.6l93-93c2.9-2.9,7.7-2.9,10.6,0l93,93
				C226.4,102.2,226.4,106.9,223.5,109.8"/>
			<path style="clip-path:url(#SVGID_00000019644904915210065660000009943551269637411250_);fill:#E6E7E8;" d="M222.9,109.6
				l-92.5,92.5c-2.9,2.9-7.6,2.9-10.6,0l-92.5-92.5c-2.9-2.9-2.9-7.6,0-10.6l92.5-92.5c2.9-2.9,7.6-2.9,10.6,0l92.5,92.5
				C225.8,102,225.8,106.7,222.9,109.6"/>
			<path style="clip-path:url(#SVGID_00000019644904915210065660000009943551269637411250_);fill:#FFFFFF;" d="M209.7,85.9
				c-57.2,3.7-125.9,25-166.7,39.4l-15.6-15.6c-2.9-2.9-2.9-7.6,0-10.6l92.5-92.5c2.9-2.9,7.6-2.9,10.6,0L209.7,85.9z"/>
			
				<rect x="436.6" y="16.1" style="clip-path:url(#SVGID_00000019644904915210065660000009943551269637411250_);fill:#FFFFFF;" width="33.7" height="183"/>
			<path style="clip-path:url(#SVGID_00000019644904915210065660000009943551269637411250_);fill:#FFFFFF;" d="M729.2,34
				c-13.2-11.8-29.5-17.8-48.3-17.8c-10.6,0-20.8,2.2-30.6,6.5c-8.7,3.9-16.4,9.2-22.9,15.9c-5.6-6.7-12.7-12-21.2-15.8
				c-9.2-4.3-19.3-6.5-29.9-6.5c-8.3,0-16.2,1.2-23.4,3.7c-5.6,2-10.7,4.7-15.2,8.1l0-5.9h-33.7v177.2h33.7V78
				c0-9.4,3.8-17,11.5-23.3c7.5-6.3,16.6-9.5,27.1-9.5c9.8,0,18.3,3.3,25.3,9.8c7,6.3,10.4,13.8,10.4,22.9v121.1h33.7V78
				c0-9.2,3.4-16.7,10.5-23c6.8-6.6,14.9-9.8,24.8-9.8c9.9,0,18.1,3.2,24.9,9.8c7,6.3,10.4,13.8,10.4,22.9v121.1H750V78
				C750,60.7,743,45.9,729.2,34"/>
			<path style="clip-path:url(#SVGID_00000019644904915210065660000009943551269637411250_);fill:#FFFFFF;" d="M939.1,165.6
				c-3.3-2.9-4.9-6.3-4.9-10.4V66.4c0-15.7-7.2-28.7-21.5-38.8c-13.4-9.4-29.4-14.1-47.6-14.1c-19,0-35.6,4.6-49.3,13.7
				c-15.2,10.1-22.9,23.3-22.9,39.2v14.4H827v-8.5c0-8.5,3.7-15.5,11.4-21.2c7.6-5.6,16.6-8.4,26.8-8.4c9.6,0,18,2.9,25,8.7
				c6.9,5.8,10.3,12.6,10.3,20.9c0,7.1-4.2,12.2-12.9,15.5c-6.7,2.7-16.8,4.6-30,5.7c-19.8,1.6-36.8,7-50.5,16
				c-15.4,10.4-23.3,23.7-23.3,39.6c0,16.1,6.2,29.2,18.5,38.7c11.8,9.4,27.8,14.2,47.5,14.2c11.9,0,23-1.9,33-5.6
				c9.5-3.5,17.2-8.7,23.1-15.4c2.8,4.9,6.7,9.1,11.9,12.5c6.4,3.9,13.7,5.8,21.6,5.8h13.9V170h-2.7
				C946.1,170,942.3,168.6,939.1,165.6 M900.5,131.4c0,11.7-5,21-15.2,28.7c-9.8,7.6-21.7,11.5-35.5,11.5c-8.9,0-16.5-2.1-22.7-6.2
				c-6.5-4.4-9.7-9.8-9.7-16.5c0-7.5,3.4-13.5,10.5-18.5c6.8-4.9,15.1-7.7,24.7-8.5l8-0.4c18-1.4,31-4.3,39.6-9.1L900.5,131.4z"/>
			<path style="clip-path:url(#SVGID_00000019644904915210065660000009943551269637411250_);fill:#FFFFFF;" d="M1122.7,37.2
				c-14.3-13.9-31.9-21-52.2-21c-11.4,0-21.9,1.9-31.4,5.7c-7.3,3.1-13.5,7.4-18.3,12.7l0.1-12.6h-33.7v177.2h33.7V87
				c0-11.2,4.3-20.5,13.3-28.4c8.9-7.8,19.7-11.8,32-11.8c12.3,0,22.9,4,31.6,11.8c8.7,7.9,12.9,17.1,12.9,28.4v112.2h33.7V87
				C1144.3,67.6,1137,50.9,1122.7,37.2"/>
			<path style="clip-path:url(#SVGID_00000019644904915210065660000009943551269637411250_);fill:#FFFFFF;" d="M382.8,104
				c-12.5-9.9-27.9-15.6-45.5-16.9c-13.4-1-24-3.4-31.5-7.2c-9.3-4.2-13.8-10.2-13.8-18.2c0-6.7,2.8-12,8.4-16.1
				c5.9-4.1,14-6.1,23.9-6.1c11.8,0,21.3,3.1,28.3,9.1c5.1,4.4,8.3,9.8,9.6,16.2l31-13.6c-3.3-9.3-8.8-17.3-16.7-23.8
				c-13-11.3-30.5-17-52.2-17c-19.7,0-35.7,4.6-47.5,13.8c-12.3,9.3-18.6,21.9-18.6,37.5c0,14.5,6.1,27.1,18,37.4
				c11.2,9.9,25.2,15.7,41.6,17c14.6,1.3,26.6,4.3,35.7,9c10.5,5.5,15.7,12.7,15.7,22.1c0,6.5-3.5,11.8-10.8,16
				c-7.6,4.4-18.1,6.6-31.2,6.6c-12.6,0-22.8-3.5-30.3-10.5c-6.4-5.9-9.9-13.3-10.9-22.4l-31.9,12c3.1,12.5,9.6,23.2,19.7,31.8
				c14.1,12.1,33.2,18.2,56.8,18.2c21.6,0,39.2-5,52.4-15c13.2-10.1,20-23.8,20-40.7C402.9,127.8,396.2,114.6,382.8,104"/>
			<path style="clip-path:url(#SVGID_00000019644904915210065660000009943551269637411250_);fill:#FFFFFF;" d="M1817.7,83.4v121
				h-18.8v-121c0-12.2-4.7-22.6-13.9-30.9c-8.8-8.5-19.8-12.8-32.5-12.8c-12.8,0-23.7,4.3-32.5,12.8c-9.2,8.4-13.9,18.8-13.9,31v121
				h-18.8v-121c0-12.2-4.7-22.6-13.9-30.9c-9.1-8.5-20.2-12.8-33-12.8c-13.3,0-24.9,4.1-34.4,12.1c-10.3,8.4-15.6,19-15.6,31.6v121
				h-18.8V32h18.8l-0.1,15l13.9-10.4c4.1-3.1,8.8-5.6,13.8-7.4c6.8-2.3,14.4-3.5,22.3-3.5c10.1,0,19.6,2.1,28.5,6.2
				c7.9,3.6,14.5,8.5,19.6,14.6l6.2,7.4l6.7-6.9c6.1-6.3,13.4-11.4,21.7-15.1c9.3-4.1,19.2-6.2,29.3-6.2c18,0,33.5,5.7,46,16.9
				l0.2,0.1C1811.2,53.8,1817.7,67.5,1817.7,83.4"/>
			<path style="clip-path:url(#SVGID_00000019644904915210065660000009943551269637411250_);fill:#FFFFFF;" d="M1333.4,163.1
				c-0.2,0.2-19.6,24.3-56.4,24.3c-41.9,0-72.3-31.3-72.3-74.4c0-43.5,30.4-75.1,72.3-75.1c32,0,51.5,21.4,51.7,21.6l1.2,1.3
				l10.8-14.1l-0.8-0.9c-0.2-0.3-21.6-25-62.8-25c-51.6,0-90.4,39.6-90.4,92.2c0,53,38,91.5,90.4,91.5c42.9,0,66.1-27.2,66.3-27.4
				l0.7-0.8l-9.3-14.7L1333.4,163.1z"/>
			<path style="clip-path:url(#SVGID_00000019644904915210065660000009943551269637411250_);fill:#FFFFFF;" d="M1454.8,20.1
				c-50,0-90.7,41.5-90.7,92.4s40.7,92.4,90.7,92.4c50,0,90.7-41.5,90.7-92.4S1504.8,20.1,1454.8,20.1 M1454.8,186.4
				c-39.9,0-72.4-33.1-72.4-73.9s32.5-73.9,72.4-73.9c39.9,0,72.4,33.1,72.4,73.9S1494.7,186.4,1454.8,186.4"/>
			
				<rect x="1160.8" y="173.4" style="clip-path:url(#SVGID_00000019644904915210065660000009943551269637411250_);fill:#FFFFFF;" width="25.7" height="25.7"/>
		</g>
	</g>
</g>
</svg>
